<?xml version="1.0" encoding="utf-8"?>
<!-- Generator: Adobe Illustrator 27.0.0, SVG Export Plug-In . SVG Version: 6.00 Build 0)  -->
<svg version="1.1" id="Capa_1" xmlns="http://www.w3.org/2000/svg" xmlns:xlink="http://www.w3.org/1999/xlink" x="0px" y="0px"
	 viewBox="0 0 588 588" style="enable-background:new 0 0 588 588;" xml:space="preserve">
<style type="text/css">
	.st0{fill:#008AF2;}
	.st1{fill:#FFFFFF;}
</style>
<g>
	<path class="st0" d="M415.7,508.7H172.3c-58.6,0-106.1-47.5-106.1-106.1V159.2c0-58.6,47.5-106.1,106.1-106.1h243.3
		c58.6,0,106.1,47.5,106.1,106.1v243.3C521.8,461.2,474.3,508.7,415.7,508.7z"/>
	<path class="st1" d="M181.8,374.6L181.8,374.6c-7,0-12.7-5.7-12.7-12.7V235.3c0-7,5.7-12.7,12.7-12.7l0,0c7,0,12.7,5.7,12.7,12.7
		v126.6C194.5,368.9,188.9,374.6,181.8,374.6z"/>
	<path class="st1" d="M395,381.8L395,381.8c-7,0-12.7-5.7-12.7-12.7V242.5c0-7,5.7-12.7,12.7-12.7l0,0c7,0,12.7,5.7,12.7,12.7v126.6
		C407.7,376.1,402,381.8,395,381.8z"/>
	<g>
		<path class="st1" d="M208,377.6c-2.9-1.9-4.8-5.4-4.8-9.6c0-7,5.4-12.5,12.2-12.5c3.2,0,6.1,1.3,7.7,2.9
			c21.1,17.9,42.3,26.6,70.7,26.6c30.1,0,49.9-16,49.9-38.1v-0.6c0-20.8-11.2-32.6-58.3-42.6c-51.5-11.2-75.2-27.8-75.2-64.7v-0.6
			c0-35.2,31-61.1,73.6-61.1c29.5,0,50.9,7.4,71.4,22.1c2.6,1.9,5.4,5.4,5.4,10.2c0,6.7-5.4,12.2-12.2,12.2c-2.9,0-5.1-0.6-7.4-2.2
			c-18.9-13.8-37.1-19.5-57.9-19.5c-29.1,0-47.7,16-47.7,36.2v0.6c0,21.1,11.5,33,60.8,43.5c49.9,10.9,73,29.1,73,63.4v0.6
			c0,38.4-32,63.4-76.5,63.4C260.2,407.7,233,397.4,208,377.6z"/>
	</g>
	<circle class="st1" cx="181.8" cy="198.8" r="13.5"/>
	<circle class="st1" cx="395" cy="202" r="13.5"/>
</g>
</svg>
